PathFileType	4	(X/Y/Z)	C:/Users/beibeiliu/ov580/test_trc/User2\sequence.20_training_dense_left.trc
DataRate	CameraRate	NumFrames	NumMarkers	Units	OrigDataRate	OrigDataStartFrame	OrigNumFrames
120	120	13	19	mm	120	279	318
Frame#	Time	ThumbCMC			ThumbMCP			ThumbIP			ThumbTip			IndexMCP			IndexPIP			IndexTip			MiddleMCP			MiddlePIP			MiddleTip			RingMCP			RingPIP			RingTip			PinkyMCP			PinkyPIP			PinkyTip			BackHand1			BackHand2			BackHand3	
		X0	Y0	Z0	X1	Y1	Z1	X2	Y2	Z2	X3	Y3	Z3	X4	Y4	Z4	X5	Y5	Z5	X6	Y6	Z6	X7	Y7	Z7	X8	Y8	Z8	X9	Y9	Z9	X10	Y10	Z10	X11	Y11	Z11	X12	Y12	Z12	X13	Y13	Z13	X14	Y14	Z14	X15	Y15	Z15	X16	Y16	Z16	X17	Y17	Z17	X18	Y18	Z18	
278	2.31667	-245.596	-11.4982	60.2098	-252.774	-0.463874	23.0179	-227.64	7.0299	-4.42013	-195.039	7.18075	-4.11162	-217.336	-31.4911	-23.0832	-207.369	-29.7751	-48.6041	-196.586	-29.0497	-73.9616	-195.267	-34.0727	-25.8921	-184.158	-29.6433	-54.7383	-172.468	-25.1691	-83.8754	-172.213	-33.5408	-14.8356	-163.856	-29.6075	-41.4298	-160.287	-25.3659	-68.4004	-155.771	-28.392	4.78718	-156.007	-24.1195	-24.2766	-151.958	-24.86	-44.9859	-181.037	-43.1887	41.4684	-192.138	-51.0052	72.8776	-222.166	-41.799	47.0989	
279	2.325	-246.803	-14.3468	58.5471	-251.587	-4.96459	26.4684	-230.651	1.67492	-7.59839	-199.156	1.02336	-6.51279	-220.678	-40.0028	-21.8155	-216.244	-40.2207	-47.359	-202.809	-41.228	-75.0631	-197.497	-42.8242	-27.5388	-190.255	-40.7632	-56.2609	-180.969	-40.428	-85.4545	-177.252	-42.1694	-17.8897	-170.773	-40.7667	-44.7403	-169.524	-37.5838	-72.6566	-160.741	-34.9124	1.29012	-157.738	-34.8261	-21.2164	-153.536	-37.7868	-46.0857	-188.441	-47.978	37.7437	-189.53	-54.3734	71.7932	-223.526	-47.6775	52.3926	
280	2.33333	-247.874	-16.1022	60.5094	-255.023	-8.662	24.4625	-231.425	-5.97756	-3.37054	-204.398	-4.32602	-9.45074	-225.322	-45.5083	-17.6096	-217.047	-48.9455	-43.024	-210.366	-50.551	-69.7817	-205.968	-49.1939	-25.991	-197.332	-48.8703	-52.3755	-191.858	-50.692	-86.2381	-182.764	-48.9204	-14.8807	-179.351	-48.7743	-46.5933	-173.445	-48.6799	-74.3857	-165.271	-41.2757	0.301006	-162.108	-42.1776	-25.8552	-160.831	-46.6759	-48.8444	-188.707	-52.5896	39.6398	-189.654	-55.6375	75.478	-222.857	-49.5582	54.246	
281	2.34167	-245.212	-17.9765	59.303	-256.913	-11.7106	23.7429	-236.627	-6.92363	-3.32058	-206.987	-8.86895	-5.60509	-227.654	-47.0669	-16.4871	-223.317	-52.2174	-46.5573	-214.368	-53.4097	-72.8682	-207.701	-52.9702	-27.4394	-200.414	-52.2706	-57.0087	-191.548	-53.9932	-84.3278	-186.854	-51.3374	-19.5333	-179.94	-52.1752	-43.7036	-181.572	-51.6692	-75.5381	-165.254	-43.9281	1.56254	-168.229	-45.1374	-28.0567	-164.136	-50.8326	-52.4598	-191.005	-53.0895	38.6337	-192.303	-56.5384	73.5303	-224.742	-49.9097	53.178	
282	2.35	-251.006	-18.7493	56.9236	-258.317	-10.7823	27.4059	-240.626	-6.38348	-5.09145	-205.967	-8.18108	-9.55126	-229.837	-45.9058	-20.9794	-224.999	-47.0486	-45.8051	-212.99	-48.7093	-75.3798	-204.557	-49.6563	-27.6194	-202.502	-48.7879	-56.2753	-192.707	-49.3386	-83.3133	-188.686	-49.0204	-20.1841	-183.37	-48.5179	-45.6233	-176.304	-49.8062	-75.7263	-170.678	-42.9029	-1.68088	-165.774	-44.3453	-28.1065	-165.677	-48.1042	-51.1917	-194.278	-55.2436	38.2741	-192.367	-56.5933	72.6067	-230.672	-51.1487	51.32	
283	2.35833	-249.474	-17.2388	58.4603	-257.058	-10.4038	23.7059	-237.478	-4.23693	-4.55943	-208.001	-3.55946	-10.1008	-228.739	-39.4509	-19.1179	-221.161	-40.2541	-44.9368	-207.897	-40.3057	-74.378	-205.459	-43.1176	-28.3336	-196.303	-40.5683	-54.526	-187.133	-40.4186	-83.5511	-183.246	-43.5566	-17.8748	-176.951	-41.8633	-44.4952	-173.445	-40.5532	-73.132	-167.616	-37.77	-0.435923	-161.928	-37.3065	-24.142	-162.663	-42.1701	-47.1388	-190.612	-52.8285	40.409	-200.078	-54.9161	71.6941	-231.875	-48.9592	48.9418	
284	2.36667	-249.199	-14.4722	57.8844	-258.968	-5.07362	24.8986	-238.527	2.27043	-5.26524	-206.93	2.08151	-4.1774	-223.409	-31.2683	-18.7179	-210.789	-30.1508	-50.4545	-201.681	-26.9775	-75.9786	-201.038	-34.1042	-26.1086	-192.182	-28.8048	-53.4538	-181.743	-25.3705	-83.8751	-181.876	-33.3091	-18.5887	-173.885	-30.6087	-42.2069	-169.489	-26.8331	-70.8305	-168.299	-29.7263	-0.550536	-161.126	-26.882	-20.7747	-154.762	-29.6365	-49.2972	-193.342	-46.2272	36.7292	-196.189	-55.698	72.5904	-232.333	-44.5758	47.2685	
285	2.375	-249.648	-12.482	54.294	-259.845	-0.602379	21.0134	-235.918	10.6697	-2.76422	-205.725	14.2201	-7.77829	-215.755	-20.1334	-24.2697	-208.136	-15.2361	-52.6996	-194.079	-10.7716	-73.7688	-192.56	-22.4442	-29.0064	-183.942	-13.5642	-56.3559	-171.793	-8.0934	-82.5099	-176.02	-23.1032	-14.8395	-168.599	-15.9346	-40.9351	-157.153	-10.8429	-67.8065	-164.4	-20.1294	2.67897	-153.23	-15.2093	-20.1733	-149.181	-14.9314	-42.1534	-191.511	-42.9664	37.5052	-197.018	-50.8117	65.5696	-229.767	-41.2857	46.0128	
286	2.38333	-249.02	-8.38209	51.1615	-258.24	6.76576	22.9698	-231.266	19.5992	-3.01708	-202.151	21.0426	0.298044	-211.858	-9.68209	-25.0686	-200.856	-3.30435	-48.1429	-184.673	3.30688	-67.6072	-189.371	-13.2391	-23.2199	-176.689	-2.1456	-48.9656	-160.184	7.65609	-77.7299	-173.865	-12.6495	-17.082	-159.658	-4.77249	-37.4826	-149.131	4.17671	-64.1715	-158.114	-12.7622	8.19748	-151.818	-5.03648	-13.2771	-143.997	-3.81231	-38.2865	-188.49	-34.9318	35.7704	-202.263	-47.6391	64.6959	-230.784	-35.6381	43.7528	
287	2.39167	-251.384	-5.56351	52.9983	-252.207	11.445	22.2434	-226.991	28.5706	-0.640559	-195.836	28.8701	6.34491	-207.601	0.0327994	-23.4798	-193.325	7.19636	-42.4379	-175.834	19.5062	-66.8776	-184.789	-3.79338	-20.5372	-169.629	10.8821	-48.5068	-153.301	22.2987	-69.8222	-168.201	-3.55041	-9.68143	-157.052	6.0002	-29.9746	-144.263	17.229	-55.8453	-155.925	-5.71723	13.9958	-146.97	5.15492	-7.91055	-140.822	9.45524	-29.2001	-186.825	-32.84	36.1983	-201.296	-48.0591	67.2114	-229.733	-31.9631	41.084	
288	2.4	-249.574	-2.86293	52.2706	-254.008	19.2081	22.2364	-222.795	35.5382	5.06594	-197.082	37.1994	13.2383	-200.861	7.45127	-16.9092	-188.251	18.4038	-38.2742	-169.665	30.9602	-56.8593	-176.298	6.85386	-17.707	-161.396	22.1379	-37.6217	-144.81	37.2144	-62.3181	-160.302	2.77262	-2.40878	-152.466	17.6533	-21.8917	-139.789	30.9432	-43.5523	-152.567	0.41763	19.2459	-141.725	14.5946	-1.81432	-133.639	19.1005	-23.593	-186.495	-30.7341	41.7007	-201.603	-44.3372	66.1985	-224.356	-27.9733	37.7897	
289	2.40833	-250.51	-2.12715	51.9028	-251.981	22.3602	23.3544	-219.722	40.8725	7.7177	-192.489	44.3404	13.8608	-200.372	13.3681	-13.9427	-179.114	26.7234	-34.6007	-161.4	39.8394	-50.3176	-174.891	12.1732	-11.7329	-158.193	28.1495	-31.274	-137.345	47.0571	-55.4367	-159.081	10.9906	-1.83183	-147.32	25.3787	-18.6463	-129.497	39.4364	-37.8022	-150.224	6.18136	24.5945	-140.741	18.5849	7.16219	-129.109	28.3422	-16.7745	-183.267	-23.8987	41.0334	-199.025	-44.4899	64.6717	-220.932	-28.4226	39.5236	
290	2.41667	-250.258	-1.1866	50.4565	-249.221	22.728	20.7391	-218.1	42.3791	6.67211	-190.056	42.3163	17.5932	-199.139	13.5168	-14.2252	-177.661	27.1254	-35.6433	-162.834	40.1052	-50.5781	-171.567	15.3131	-15.1583	-155.57	31.2222	-33.0572	-141.111	48.4155	-55.1954	-157.402	12.7437	-1.36949	-144.018	26.3376	-17.7887	-129.583	41.9029	-38.3214	-149.088	6.17332	25.7603	-134.341	22.0265	4.47673	-125.352	31.2159	-12.4288	-186.259	-25.9997	42.4564	-197.038	-43.027	64.7779	-217.943	-24.7587	37.9001	
